<?xml version="1.0" standalone="no"?><!DOCTYPE svg PUBLIC "-//W3C//DTD SVG 1.1//EN" "http://www.w3.org/Graphics/SVG/1.1/DTD/svg11.dtd"><svg t="1557851291236" class="icon" style="" viewBox="0 0 1025 1024" version="1.1" xmlns="http://www.w3.org/2000/svg" p-id="10156" xmlns:xlink="http://www.w3.org/1999/xlink" width="200.1953125" height="200"><defs><style type="text/css"></style></defs><path d="M929.369043 167.490783 927.654957 476.605217c0 0-5.164522 167.490783-184.119652 167.490783L492.321391 644.096l-111.86087 115.689739 184.119652 1.714087L817.530435 1024l8.614957-269.401043c0 0 197.87687 13.824 197.87687-162.304s0-260.763826 0-260.763826S1032.614957 226.214957 929.369043 167.490783zM710.856348 600.932174c91.225043 0 165.175652-74.217739 165.175652-165.776696L876.032 165.776696C876.032 74.217739 802.05913 0 710.856348 0L165.376 0c-91.225043 0-165.175652 74.217739-165.175652 165.776696l0 269.378783c0 91.558957 73.950609 165.776696 165.175652 165.776696l13.890783 0L180.869565 846.135652l272.962783-245.203478L710.856348 600.932174z" p-id="10157" data-spm-anchor-id="a313x.7781069.0.i14" class="" fill="#666666"></path></svg>